<svg xmlns="http://www.w3.org/2000/svg" viewBox="0 0 240 160">
  <rect width="240" height="160" fill="#f3f4f6"/>
  <rect x="40" y="14" width="60" height="6" rx="2" fill="#6b7280"/>
  <rect x="40" y="32" width="20" height="3" rx="1" fill="#9ca3af"/>
  <rect x="40" y="40" width="160" height="14" rx="3" fill="white" stroke="#e5e7eb"/>
  <rect x="40" y="64" width="20" height="3" rx="1" fill="#9ca3af"/>
  <rect x="40" y="72" width="76" height="14" rx="3" fill="white" stroke="#e5e7eb"/>
  <rect x="124" y="64" width="20" height="3" rx="1" fill="#9ca3af"/>
  <rect x="124" y="72" width="76" height="14" rx="3" fill="white" stroke="#e5e7eb"/>
  <rect x="40" y="96" width="20" height="3" rx="1" fill="#9ca3af"/>
  <rect x="40" y="104" width="160" height="22" rx="3" fill="white" stroke="#e5e7eb"/>
  <rect x="40" y="134" width="8" height="6" rx="1" fill="white" stroke="#9ca3af"/>
  <rect x="52" y="135" width="80" height="3" rx="1" fill="#9ca3af"/>
  <rect x="150" y="134" width="50" height="8" rx="2" fill="#2563eb"/>
</svg>
