<svg xmlns="http://www.w3.org/2000/svg" viewBox="0 0 240 160">
  <rect width="240" height="160" fill="#f3f4f6"/>
  <rect x="20" y="34" width="32" height="3" rx="1" fill="#9ca3af"/>
  <rect x="20" y="42" width="60" height="5" rx="2" fill="#6b7280"/>
  <rect x="20" y="60" width="32" height="3" rx="1" fill="#9ca3af"/>
  <rect x="20" y="68" width="70" height="5" rx="2" fill="#2563eb"/>
  <rect x="20" y="86" width="32" height="3" rx="1" fill="#9ca3af"/>
  <rect x="20" y="94" width="80" height="5" rx="2" fill="#2563eb"/>
  <rect x="20" y="112" width="32" height="3" rx="1" fill="#9ca3af"/>
  <rect x="20" y="120" width="74" height="5" rx="2" fill="#6b7280"/>

  <rect x="120" y="22" width="100" height="116" rx="6" fill="#dbeafe"/>
  <path d="M 120 80 Q 150 60 180 100 T 220 90" stroke="#93c5fd" stroke-width="2" fill="none"/>
  <path d="M 120 110 Q 150 100 180 130 T 220 120" stroke="#93c5fd" stroke-width="2" fill="none"/>
  <circle cx="160" cy="78" r="6" fill="#2563eb"/>
  <circle cx="160" cy="78" r="2" fill="white"/>
</svg>
