<svg xmlns="http://www.w3.org/2000/svg" viewBox="0 0 240 160">
  <rect width="240" height="160" fill="#f3f4f6"/>
  <rect x="20" y="20" width="200" height="28" rx="4" fill="white" stroke="#e5e7eb"/>
  <rect x="28" y="28" width="12" height="12" rx="2" fill="#2563eb" opacity="0.15"/>
  <text x="34" y="38" font-family="sans-serif" font-size="6" font-weight="700" fill="#2563eb" text-anchor="middle">PDF</text>
  <rect x="48" y="29" width="80" height="4" rx="2" fill="#6b7280"/>
  <rect x="48" y="38" width="60" height="3" rx="2" fill="#9ca3af"/>
  <rect x="186" y="32" width="28" height="6" rx="2" fill="#2563eb" opacity="0.6"/>

  <rect x="20" y="54" width="200" height="28" rx="4" fill="white" stroke="#e5e7eb"/>
  <rect x="28" y="62" width="12" height="12" rx="2" fill="#2563eb" opacity="0.15"/>
  <text x="34" y="72" font-family="sans-serif" font-size="6" font-weight="700" fill="#2563eb" text-anchor="middle">DOC</text>
  <rect x="48" y="63" width="100" height="4" rx="2" fill="#6b7280"/>
  <rect x="48" y="72" width="70" height="3" rx="2" fill="#9ca3af"/>
  <rect x="186" y="66" width="28" height="6" rx="2" fill="#2563eb" opacity="0.6"/>

  <rect x="20" y="88" width="200" height="28" rx="4" fill="white" stroke="#e5e7eb"/>
  <rect x="28" y="96" width="12" height="12" rx="2" fill="#2563eb" opacity="0.15"/>
  <text x="34" y="106" font-family="sans-serif" font-size="6" font-weight="700" fill="#2563eb" text-anchor="middle">XLS</text>
  <rect x="48" y="97" width="74" height="4" rx="2" fill="#6b7280"/>
  <rect x="48" y="106" width="54" height="3" rx="2" fill="#9ca3af"/>
  <rect x="186" y="100" width="28" height="6" rx="2" fill="#2563eb" opacity="0.6"/>
</svg>
