<svg xmlns="http://www.w3.org/2000/svg" viewBox="0 0 240 160">
  <rect width="240" height="160" fill="#f3f4f6"/>
  <rect x="20" y="14" width="60" height="6" rx="2" fill="#6b7280"/>
  <rect x="180" y="15" width="40" height="4" rx="2" fill="#2563eb"/>

  <rect x="20" y="32" width="62" height="106" rx="5" fill="white" stroke="#e5e7eb"/>
  <rect x="20" y="32" width="62" height="40" rx="5" fill="#d1d5db"/>
  <polygon points="22,72 36,58 48,66 60,52 82,72" fill="#9ca3af"/>
  <rect x="26" y="80" width="30" height="4" rx="2" fill="#9ca3af"/>
  <rect x="26" y="88" width="48" height="5" rx="2" fill="#6b7280"/>
  <rect x="26" y="98" width="52" height="3" rx="2" fill="#d1d5db"/>
  <rect x="26" y="105" width="44" height="3" rx="2" fill="#d1d5db"/>

  <rect x="89" y="32" width="62" height="106" rx="5" fill="white" stroke="#e5e7eb"/>
  <rect x="89" y="32" width="62" height="40" rx="5" fill="#d1d5db"/>
  <polygon points="91,72 105,58 117,66 129,52 151,72" fill="#9ca3af"/>
  <rect x="95" y="80" width="30" height="4" rx="2" fill="#9ca3af"/>
  <rect x="95" y="88" width="48" height="5" rx="2" fill="#6b7280"/>
  <rect x="95" y="98" width="52" height="3" rx="2" fill="#d1d5db"/>
  <rect x="95" y="105" width="44" height="3" rx="2" fill="#d1d5db"/>

  <rect x="158" y="32" width="62" height="106" rx="5" fill="white" stroke="#e5e7eb"/>
  <rect x="158" y="32" width="62" height="40" rx="5" fill="#d1d5db"/>
  <polygon points="160,72 174,58 186,66 198,52 220,72" fill="#9ca3af"/>
  <rect x="164" y="80" width="30" height="4" rx="2" fill="#9ca3af"/>
  <rect x="164" y="88" width="48" height="5" rx="2" fill="#6b7280"/>
  <rect x="164" y="98" width="52" height="3" rx="2" fill="#d1d5db"/>
  <rect x="164" y="105" width="44" height="3" rx="2" fill="#d1d5db"/>
</svg>
