<svg xmlns="http://www.w3.org/2000/svg" viewBox="0 0 240 160">
  <rect width="240" height="160" fill="#f3f4f6"/>
  <line x1="40" y1="70" x2="200" y2="70" stroke="#d1d5db" stroke-width="2"/>
  <circle cx="40" cy="70" r="14" fill="#2563eb"/>
  <circle cx="100" cy="70" r="14" fill="#2563eb"/>
  <circle cx="160" cy="70" r="14" fill="#2563eb"/>
  <circle cx="200" cy="70" r="14" fill="#9ca3af"/>
  <text x="40" y="74" font-family="sans-serif" font-size="11" font-weight="700" fill="white" text-anchor="middle">1</text>
  <text x="100" y="74" font-family="sans-serif" font-size="11" font-weight="700" fill="white" text-anchor="middle">2</text>
  <text x="160" y="74" font-family="sans-serif" font-size="11" font-weight="700" fill="white" text-anchor="middle">3</text>
  <text x="200" y="74" font-family="sans-serif" font-size="11" font-weight="700" fill="white" text-anchor="middle">4</text>
  <rect x="20" y="100" width="40" height="5" rx="2" fill="#6b7280"/>
  <rect x="80" y="100" width="40" height="5" rx="2" fill="#6b7280"/>
  <rect x="140" y="100" width="40" height="5" rx="2" fill="#6b7280"/>
  <rect x="180" y="100" width="40" height="5" rx="2" fill="#6b7280"/>
  <rect x="22" y="110" width="36" height="4" rx="2" fill="#d1d5db"/>
  <rect x="82" y="110" width="36" height="4" rx="2" fill="#d1d5db"/>
  <rect x="142" y="110" width="36" height="4" rx="2" fill="#d1d5db"/>
  <rect x="182" y="110" width="36" height="4" rx="2" fill="#d1d5db"/>
</svg>
