<svg xmlns="http://www.w3.org/2000/svg" viewBox="0 0 240 160">
  <rect width="240" height="160" fill="#f3f4f6"/>
  <rect x="20" y="22" width="92" height="116" rx="6" fill="white" stroke="#e5e7eb"/>
  <text x="32" y="50" font-family="serif" font-size="32" fill="#2563eb">«</text>
  <rect x="32" y="56" width="68" height="4" rx="2" fill="#9ca3af"/>
  <rect x="32" y="66" width="64" height="4" rx="2" fill="#9ca3af"/>
  <rect x="32" y="76" width="40" height="4" rx="2" fill="#9ca3af"/>
  <circle cx="42" cy="108" r="10" fill="#d1d5db"/>
  <rect x="58" y="103" width="30" height="4" rx="2" fill="#6b7280"/>
  <rect x="58" y="111" width="40" height="3" rx="2" fill="#9ca3af"/>

  <rect x="128" y="22" width="92" height="116" rx="6" fill="white" stroke="#e5e7eb"/>
  <text x="140" y="50" font-family="serif" font-size="32" fill="#2563eb">«</text>
  <rect x="140" y="56" width="68" height="4" rx="2" fill="#9ca3af"/>
  <rect x="140" y="66" width="64" height="4" rx="2" fill="#9ca3af"/>
  <rect x="140" y="76" width="40" height="4" rx="2" fill="#9ca3af"/>
  <circle cx="150" cy="108" r="10" fill="#d1d5db"/>
  <rect x="166" y="103" width="30" height="4" rx="2" fill="#6b7280"/>
  <rect x="166" y="111" width="40" height="3" rx="2" fill="#9ca3af"/>
</svg>
